<svg width="1440" height="327" viewBox="0 0 1440 327" fill="none" xmlns="http://www.w3.org/2000/svg">
<rect x="697" y="48" width="45" height="45" rx="10" fill="black"/>
<path fill-rule="evenodd" clip-rule="evenodd" d="M731.918 66.85C731.973 66.9404 732.001 67.0443 732 67.15C731.998 68.5778 731.152 69.8693 729.844 70.442C729.848 70.4637 729.85 70.4859 729.849 70.508V81.215C729.848 81.5531 729.574 81.8269 729.236 81.828H709.758C709.42 81.8269 709.146 81.5531 709.145 81.215V70.43C707.843 69.8586 707.001 68.5719 707 67.15C707.001 67.0447 707.03 66.9414 707.082 66.85L710.796 60.312C710.903 60.1191 711.106 59.9996 711.327 60H727.669C727.889 60.0017 728.091 60.1206 728.2 60.312L731.918 66.85ZM727.311 61.231H711.684L708.783 66.344H730.218L727.311 61.231ZM724.792 67.565C724.591 68.6878 723.614 69.5051 722.473 69.5051C721.332 69.5051 720.355 68.6878 720.154 67.565H724.792ZM716.53 69.5051C717.671 69.5051 718.648 68.6881 718.851 67.565H714.208C714.411 68.6881 715.388 69.5051 716.53 69.5051ZM712.91 67.565C712.707 68.6881 711.73 69.5051 710.589 69.5051C709.447 69.5051 708.47 68.6881 708.267 67.565H712.91ZM713.774 80.602H717.3H717.304V73.987C717.304 73.7551 717.212 73.5327 717.048 73.3687C716.884 73.2047 716.662 73.1127 716.43 73.113H714.648C714.416 73.1127 714.194 73.2047 714.03 73.3687C713.866 73.5327 713.774 73.7551 713.774 73.987V80.602ZM728.625 80.602H718.525V73.987C718.525 72.8272 717.585 71.887 716.425 71.887H714.642C713.482 71.887 712.542 72.8272 712.542 73.987V80.607H710.371V70.733C710.443 70.738 710.514 70.738 710.586 70.738C711.78 70.7373 712.895 70.1418 713.559 69.15C714.225 70.1397 715.339 70.7332 716.532 70.7332C717.725 70.7332 718.839 70.1397 719.505 69.15C720.168 70.1398 721.281 70.7337 722.473 70.7337C723.665 70.7337 724.778 70.1398 725.441 69.15C726.106 70.1403 727.221 70.7342 728.414 70.734C728.45 70.734 728.485 70.7327 728.519 70.7315H728.519C728.553 70.7302 728.588 70.729 728.623 70.729V80.598L728.625 80.602ZM726.097 67.571C726.298 68.6938 727.274 69.5114 728.414 69.512C728.414 69.512 728.414 69.512 728.414 69.512H728.415C728.414 69.512 728.414 69.512 728.414 69.512C729.556 69.51 730.534 68.6939 730.74 67.571H726.097Z" fill="white"/>
<path fill-rule="evenodd" clip-rule="evenodd" d="M721.362 71.887H724.762C725.693 71.8875 726.447 72.642 726.448 73.573V76.178C726.447 77.1089 725.693 77.8634 724.762 77.864H721.362C720.431 77.8634 719.677 77.1089 719.676 76.178V73.573C719.677 72.642 720.431 71.8875 721.362 71.887ZM724.762 76.638C725.016 76.6374 725.221 76.4318 725.222 76.178V73.573C725.221 73.3191 725.016 73.1135 724.762 73.113H721.362C721.108 73.1135 720.903 73.3191 720.902 73.573V76.178C720.903 76.4318 721.108 76.6374 721.362 76.638H724.762Z" fill="white"/>
</svg>