<svg width="1440" height="327" viewBox="0 0 1440 327" fill="none" xmlns="http://www.w3.org/2000/svg">
<rect x="491" y="48" width="45" height="45" rx="10" fill="black"/>
<path fill-rule="evenodd" clip-rule="evenodd" d="M521.836 62.1667C522.593 62.1642 523.253 61.6521 523.443 60.9197H526.001V60.0837H523.443C523.234 59.273 522.454 58.7447 521.623 58.8505C520.792 58.9563 520.17 59.6633 520.17 60.5007C520.172 60.7972 520.253 61.0878 520.406 61.3417L519.674 62.0737C516.239 57.5972 509.862 56.6719 505.296 59.9872C500.73 63.3025 499.635 69.6518 502.828 74.3048C506.02 78.9578 512.338 80.2212 517.074 77.1537L518.331 78.4107L518.92 78.9997L522.273 82.3527C522.821 82.9232 523.634 83.153 524.4 82.9535C525.165 82.754 525.763 82.1564 525.962 81.3911C526.162 80.6258 525.932 79.8124 525.361 79.2647L522.008 75.9117L521.419 75.3227L520.162 74.0657C522.393 70.6292 522.393 66.2022 520.162 62.7657L520.995 61.9327C521.249 62.085 521.54 62.1659 521.836 62.1667ZM521.836 59.6667C522.296 59.6678 522.668 60.041 522.667 60.5007C522.667 60.9603 522.294 61.3327 521.834 61.3327C521.375 61.3327 521.002 60.9603 521.001 60.5007C521.001 60.2794 521.089 60.0672 521.246 59.9109C521.403 59.7547 521.615 59.6671 521.836 59.6677V59.6667ZM524.773 81.7418C525.286 81.2166 525.286 80.3775 524.772 79.8527L521.419 76.4997L519.509 78.4097L522.862 81.7627L522.884 81.7847C523.421 82.2861 524.26 82.2671 524.773 81.7418ZM520.831 75.9117L518.921 77.8197L517.768 76.6667C517.801 76.6414 517.833 76.6145 517.865 76.5877C517.89 76.5668 517.915 76.5458 517.94 76.5257C517.998 76.4797 518.065 76.4257 518.127 76.3717C518.218 76.2947 518.308 76.2177 518.396 76.1377L518.529 76.0127C518.7 75.8527 518.867 75.686 519.029 75.5127L519.154 75.3797C519.234 75.2917 519.311 75.2017 519.388 75.1107C519.44 75.0493 519.492 74.987 519.542 74.9237C519.559 74.9033 519.576 74.8831 519.594 74.863C519.625 74.8268 519.657 74.7906 519.682 74.7527L520.831 75.9117ZM518.807 74.5127C518.949 74.3397 519.085 74.1597 519.216 73.9767C522.118 69.9143 521.42 64.3053 517.611 61.0782C513.802 57.8511 508.154 58.0843 504.624 61.6145C501.094 65.1447 500.861 70.7922 504.088 74.6014C507.315 78.4107 512.924 79.1087 516.986 76.2067C517.17 76.0757 517.349 75.9407 517.522 75.7977C517.543 75.7803 517.563 75.7623 517.584 75.7443C517.613 75.7189 517.642 75.6933 517.671 75.6687C517.821 75.5387 517.965 75.407 518.103 75.2737C518.164 75.215 518.224 75.155 518.283 75.0937C518.419 74.9537 518.551 74.8097 518.678 74.6617L518.686 74.6533C518.726 74.607 518.768 74.5598 518.807 74.5127Z" fill="white"/>
<path fill-rule="evenodd" clip-rule="evenodd" d="M502.677 68.4147C502.677 63.5839 506.594 59.6677 511.424 59.6677C516.255 59.6677 520.171 63.5839 520.171 68.4147C520.171 73.2456 516.255 77.1617 511.424 77.1617C506.594 77.1617 502.677 73.2456 502.677 68.4147ZM517.886 63.8617C516.408 61.7566 513.997 60.5028 511.424 60.5007C507.698 60.5061 504.479 63.1068 503.69 66.7487H505.235C505.445 65.938 506.225 65.4097 507.056 65.5156C507.886 65.6214 508.509 66.3283 508.508 67.1657C508.507 67.4622 508.425 67.7528 508.272 68.0067L510.166 69.9007C510.683 69.5857 511.332 69.5857 511.848 69.9007L514.575 67.1737C514.422 66.9198 514.341 66.6292 514.339 66.3327C514.339 65.4126 515.085 64.6667 516.005 64.6667C516.302 64.6686 516.592 64.7505 516.845 64.9037L517.886 63.8617ZM516.839 66.3317C516.839 66.7918 516.466 67.1647 516.006 67.1647C515.546 67.1647 515.173 66.7918 515.173 66.3317C515.173 65.8717 515.546 65.4987 516.006 65.4987C516.466 65.4993 516.838 65.8721 516.838 66.3317H516.839ZM511.006 72.1647C511.466 72.1647 511.839 71.7918 511.839 71.3317L511.84 71.3297C511.839 70.8701 511.466 70.4982 511.006 70.4987C510.546 70.4987 510.173 70.8717 510.173 71.3317C510.173 71.7918 510.546 72.1647 511.006 72.1647ZM507.675 67.1617C507.675 67.6218 507.302 67.9947 506.842 67.9947C506.382 67.9947 506.009 67.6218 506.009 67.1617C506.009 66.7017 506.382 66.3287 506.842 66.3287C507.302 66.3287 507.675 66.7017 507.675 67.1617ZM507.058 75.0153C509.522 76.645 512.688 76.7667 515.269 75.3307V75.3337C519.087 73.2137 520.463 68.4004 518.343 64.5827L517.435 65.4907C517.588 65.7446 517.67 66.0352 517.671 66.3317C517.671 67.2518 516.925 67.9977 516.005 67.9977C515.709 67.9963 515.418 67.9148 515.164 67.7617L512.437 70.4897C512.59 70.7436 512.672 71.0342 512.673 71.3307C512.673 72.2508 511.927 72.9967 511.007 72.9967C510.087 72.9967 509.341 72.2508 509.341 71.3307C509.343 71.0342 509.424 70.7436 509.577 70.4897L507.683 68.5957C507.429 68.7488 507.139 68.8303 506.842 68.8317C506.085 68.8289 505.425 68.3153 505.235 67.5817H503.555C503.244 70.5191 504.594 73.3856 507.058 75.0153Z" fill="white"/>

</svg>