<svg width="1440" height="327" viewBox="0 0 1440 327" fill="none" xmlns="http://www.w3.org/2000/svg">
<path d="M939.5 272C949.717 272 958 263.717 958 253.5C958 243.283 949.717 235 939.5 235C929.283 235 921 243.283 921 253.5C921 263.717 929.283 272 939.5 272Z" fill="white"></path>
<path d="M942.727 245.631H940.782C939.795 245.574 938.831 245.948 938.141 246.656C937.45 247.364 937.1 248.337 937.182 249.323V251.023H935.229C935.06 251.023 934.923 251.16 934.923 251.329V253.797C934.923 253.966 935.06 254.103 935.229 254.103H937.185V260.326C937.185 260.495 937.322 260.632 937.491 260.632H940.046C940.215 260.632 940.352 260.495 940.352 260.326V254.102H942.639C942.808 254.102 942.945 253.965 942.945 253.796V251.331C942.945 251.162 942.808 251.025 942.639 251.025H940.346V249.582C940.346 248.889 940.511 248.536 941.415 248.536H942.725C942.894 248.536 943.031 248.399 943.031 248.23V245.94C943.032 245.858 943 245.78 942.943 245.722C942.886 245.664 942.808 245.631 942.727 245.631V245.631Z" fill="#3C0AFE"></path>
</svg>