<svg width="1440" height="327" viewBox="0 0 1440 327" fill="none" xmlns="http://www.w3.org/2000/svg">
  <rect x="285" y="48" width="45" height="45" rx="10" fill="#5A31FC" />
<path fill-rule="evenodd" clip-rule="evenodd" d="M314.667 67.0854H316.229C316.368 67.0854 316.501 67.1408 316.599 67.2394C316.697 67.338 316.751 67.4715 316.75 67.6104V80.6274C316.749 81.7773 315.817 82.7093 314.667 82.7104H300.083C298.933 82.7093 298.001 81.7773 298 80.6274V67.6104C297.999 67.4715 298.053 67.338 298.151 67.2394C298.249 67.1408 298.382 67.0854 298.521 67.0854H300.084V65.0024C300.053 62.377 301.436 59.9379 303.705 58.6162C305.974 57.2946 308.778 57.2946 311.046 58.6162C313.315 59.9379 314.698 62.377 314.667 65.0024V67.0854ZM307.379 58.7524C303.927 58.7524 301.129 61.5506 301.129 65.0024L301.125 67.0854H302.166V65.0024C302.166 62.1258 304.498 59.7939 307.375 59.7939C310.251 59.7939 312.583 62.1258 312.583 65.0024V67.0854H313.629V65.0024C313.629 61.5506 310.831 58.7524 307.379 58.7524ZM311.546 65.0024V67.0854H303.208V65.0024C303.185 63.4985 303.974 62.0987 305.272 61.3399C306.571 60.5811 308.178 60.5811 309.477 61.3399C310.775 62.0987 311.564 63.4985 311.541 65.0024H311.546ZM314.671 81.6694C315.246 81.6688 315.712 81.2026 315.713 80.6274L315.708 68.1274H299.041V80.6274C299.042 81.2026 299.508 81.6688 300.083 81.6694H314.671Z" fill="white"/>
<path fill-rule="evenodd" clip-rule="evenodd" d="M305.815 77.9664L306.144 75.0114C305.606 74.623 305.289 73.9996 305.29 73.3364C305.29 72.1857 306.223 71.2529 307.374 71.2529C308.524 71.2529 309.457 72.1857 309.457 73.3364C309.459 73.9993 309.142 74.6226 308.605 75.0114L308.934 77.9664C308.95 78.1137 308.903 78.2608 308.804 78.3711C308.705 78.4815 308.564 78.5445 308.416 78.5444H306.333C306.185 78.5445 306.044 78.4815 305.945 78.3711C305.846 78.2608 305.799 78.1137 305.815 77.9664ZM308.39 73.1018C308.283 72.6283 307.861 72.2928 307.375 72.2944H307.373C306.887 72.2928 306.465 72.6283 306.358 73.1018C306.25 73.5754 306.485 74.0605 306.923 74.2694C307.122 74.3655 307.238 74.5762 307.214 74.7954L306.914 77.5014H307.834L307.534 74.7954C307.51 74.5762 307.626 74.3655 307.825 74.2694C308.263 74.0605 308.498 73.5754 308.39 73.1018Z" fill="white"/>
</svg>