<svg width="1440" height="327" viewBox="0 0 1440 327" fill="none" xmlns="http://www.w3.org/2000/svg">
<path xmlns="http://www.w3.org/2000/svg" d="M833.5 272C843.717 272 852 263.717 852 253.5C852 243.283 843.717 235 833.5 235C823.283 235 815 243.283 815 253.5C815 263.717 823.283 272 833.5 272Z" fill="white"/>
<path xmlns="http://www.w3.org/2000/svg" fill-rule="evenodd" clip-rule="evenodd" d="M830.139 246H836.86C839.145 246.002 840.997 247.854 841 250.139V256.861C840.997 259.146 839.145 260.998 836.86 261H830.139C827.854 260.997 826.002 259.145 826 256.86V250.139C826.003 247.854 827.854 246.003 830.139 246ZM836.86 259.67C838.411 259.668 839.667 258.412 839.669 256.861V250.14C839.667 248.589 838.411 247.333 836.86 247.331H830.139C828.589 247.333 827.333 248.589 827.331 250.139V256.861C827.333 258.411 828.589 259.668 830.139 259.67H836.86Z" fill="#3C0AFE"/>
<path fill-rule="evenodd" clip-rule="evenodd" d="M829.637 253.501C829.636 251.367 831.366 249.636 833.5 249.635C835.634 249.636 837.365 251.366 837.367 253.5C837.367 255.634 835.637 257.365 833.503 257.365C831.368 257.365 829.638 255.636 829.637 253.501ZM830.966 253.501C830.966 254.9 832.1 256.035 833.5 256.035V256.034C834.898 256.032 836.032 254.899 836.034 253.501C836.034 252.102 834.899 250.967 833.5 250.967C832.1 250.967 830.966 252.102 830.966 253.501Z" fill="#3C0AFE"></path>
<path xmlns="http://www.w3.org/2000/svg" d="M837.53 248.507C837.065 248.507 836.665 248.836 836.574 249.292C836.483 249.748 836.727 250.205 837.157 250.383C837.586 250.561 838.082 250.411 838.341 250.024C838.599 249.637 838.549 249.122 838.22 248.793C838.037 248.61 837.789 248.507 837.53 248.507Z" fill="#3C0AFE"/>

</svg>