<svg width="1440" height="327" viewBox="0 0 1440 327" fill="none" xmlns="http://www.w3.org/2000/svg">
<rect x="903" y="48" width="45" height="45" rx="10" fill="black"/>
<path xmlns="http://www.w3.org/2000/svg" fill-rule="evenodd" clip-rule="evenodd" d="M933.5 79.667H933.158L933.494 77.652C933.498 77.6292 933.5 77.6061 933.5 77.583V68.833C933.498 67.6833 932.567 66.7517 931.417 66.75H931V60.083C930.998 58.9333 930.067 58.0017 928.917 58H920.583C919.433 58.0017 918.502 58.9333 918.5 60.083V64.483C917.789 64.0679 916.882 64.2367 916.368 64.8796C915.854 65.5225 915.889 66.445 916.45 67.047C916.166 67.2821 916.001 67.6313 916 68V68.833C916.001 69.1414 916.117 69.4383 916.325 69.666C916.117 69.894 916.001 70.1913 916 70.5V71.333C916.001 71.6414 916.117 71.9383 916.325 72.166C916.117 72.394 916.001 72.6913 916 73V73.833C916 74.5234 916.56 75.083 917.25 75.083H918.5V75.916C918.501 77.0661 919.433 77.9983 920.583 78H921.116L921.671 79.667H921C920.54 79.667 920.167 80.0399 920.167 80.5V82.167C920.167 82.6271 920.54 83 921 83H933.5C933.96 83 934.333 82.6271 934.333 82.167V80.5C934.333 80.0399 933.96 79.667 933.5 79.667ZM922.25 58.833H927.25V59.25C927.25 59.4803 927.063 59.667 926.833 59.667H922.667C922.437 59.667 922.25 59.4803 922.25 59.25V58.833ZM917.25 69.25H920.167C920.627 69.25 921.001 68.8768 921.001 68.4165C921.001 67.9562 920.627 67.583 920.167 67.583H917.25C917.02 67.583 916.833 67.7697 916.833 68V68.833C916.833 69.0633 917.02 69.25 917.25 69.25ZM921 70.917C921 71.1379 920.912 71.3498 920.756 71.506C920.6 71.6622 920.388 71.75 920.167 71.75H917.25C917.139 71.75 917.033 71.7061 916.955 71.6279C916.877 71.5497 916.833 71.4436 916.833 71.333V70.5C916.833 70.2697 917.02 70.083 917.25 70.083H920.167C920.388 70.083 920.6 70.1709 920.756 70.3273C920.913 70.4838 921 70.6959 921 70.917ZM918.5 65.916C918.5 65.4559 918.127 65.083 917.667 65.083C917.207 65.083 916.834 65.4559 916.834 65.916C916.834 66.3761 917.207 66.749 917.667 66.749C918.127 66.749 918.5 66.3761 918.5 65.916ZM916.834 73.833V73C916.834 72.7697 917.021 72.583 917.251 72.583H920.167C920.627 72.583 921.001 72.9562 921.001 73.4165C921.001 73.8768 920.627 74.25 920.167 74.25H917.25C917.02 74.25 916.833 74.0633 916.833 73.833H916.834ZM919.334 75.083V75.916L919.333 75.917C919.333 76.6074 919.893 77.167 920.583 77.167H928.917C929.607 77.167 930.167 76.6074 930.167 75.917V70.917H929.75C928.599 70.917 927.667 69.9842 927.667 68.8335C927.667 67.6828 928.599 66.75 929.75 66.75H930.167V60.083C930.167 59.7515 930.035 59.4335 929.801 59.1991C929.566 58.9647 929.249 58.833 928.917 58.833H928.084V59.25C928.084 59.9404 927.524 60.5 926.834 60.5H922.667C922.335 60.5003 922.017 60.3687 921.782 60.1342C921.548 59.8998 921.416 59.5817 921.416 59.25V58.833H920.583C919.893 58.833 919.333 59.3926 919.333 60.083V66.75H920.167C920.861 66.7476 921.484 67.1779 921.727 67.8283C921.971 68.4787 921.783 69.2119 921.258 69.666C921.623 69.9785 921.834 70.4352 921.834 70.916C921.834 71.3968 921.623 71.8535 921.258 72.166C921.784 72.6199 921.972 73.3536 921.729 74.0045C921.485 74.6555 920.862 75.0858 920.167 75.083H919.334ZM922 78H928.922C930.07 77.9956 930.998 77.0648 931 75.917V70.5C931 70.2697 930.813 70.083 930.583 70.083H929.75C929.06 70.083 928.5 69.5234 928.5 68.833C928.5 68.1426 929.06 67.583 929.75 67.583H931.417C931.749 67.583 932.066 67.7147 932.301 67.9491C932.535 68.1835 932.667 68.5015 932.667 68.833V77.548L932.314 79.666H922.55L922 78ZM921 80.5V82.167H933.5V80.5H921Z" fill="white"/>
<path xmlns="http://www.w3.org/2000/svg" d="M922.372 66.872L926.539 62.705L927.128 63.294L922.961 67.465L922.372 66.872Z" fill="white"/>
<path xmlns="http://www.w3.org/2000/svg" fill-rule="evenodd" clip-rule="evenodd" d="M926.417 68C925.727 68 925.167 67.4404 925.167 66.75C925.167 66.0596 925.727 65.5 926.417 65.5C927.107 65.5 927.667 66.0596 927.667 66.75C927.667 67.4404 927.107 68 926.417 68ZM926.417 67.167C926.647 67.167 926.834 66.9803 926.834 66.75C926.834 66.5197 926.647 66.333 926.417 66.333C926.187 66.333 926 66.5197 926 66.75C926 66.9803 926.187 67.167 926.417 67.167Z" fill="white"/>
<path fill-rule="evenodd" clip-rule="evenodd" d="M924.333 63.417C924.333 64.1073 923.773 64.667 923.083 64.667C922.393 64.667 921.833 64.1073 921.833 63.417C921.833 62.7266 922.393 62.167 923.083 62.167C923.773 62.167 924.333 62.7266 924.333 63.417ZM923.5 63.417C923.5 63.1867 923.313 63 923.083 63C922.853 63 922.666 63.1867 922.666 63.417C922.666 63.6473 922.853 63.834 923.083 63.834C923.313 63.834 923.5 63.6473 923.5 63.417Z" fill="white"></path>
<path d="M922.372 66.872L926.539 62.705L927.128 63.294L922.961 67.465L922.372 66.872Z" fill="white"></path>
<path xmlns="http://www.w3.org/2000/svg" d="M924.333 72.167H925.166V73H924.333V72.167Z" fill="white"/>
</svg>