<svg width="1440" height="327" viewBox="0 0 1440 327" fill="none" xmlns="http://www.w3.org/2000/svg">
<rect xmlns="http://www.w3.org/2000/svg" x="1109" y="48" width="45" height="45" rx="10" fill="black"/>
<path xmlns="http://www.w3.org/2000/svg" fill-rule="evenodd" clip-rule="evenodd" d="M1121.6 62H1141.4C1142.84 62.0044 1144 63.1683 1144 64.604V76.067C1144 77.5011 1142.83 78.6626 1141.4 78.667H1121.6C1120.17 78.6626 1119 77.5011 1119 76.067V64.6C1119 63.1659 1120.17 62.0044 1121.6 62ZM1141.4 77.629C1142.26 77.6279 1142.96 76.9292 1142.96 76.067H1142.96V64.604C1142.96 63.7418 1142.26 63.0431 1141.4 63.042H1121.6C1120.74 63.0453 1120.04 63.7433 1120.04 64.604V76.067C1120.04 76.9277 1120.74 77.6257 1121.6 77.629H1141.4Z" fill="#F8F8FA"/>
<path xmlns="http://www.w3.org/2000/svg" fill-rule="evenodd" clip-rule="evenodd" d="M1119.52 65.125H1143.48C1143.77 65.125 1144 65.3583 1144 65.646V68.771C1144 69.0587 1143.77 69.292 1143.48 69.292H1119.52C1119.23 69.292 1119 69.0587 1119 68.771V65.646C1119 65.3583 1119.23 65.125 1119.52 65.125ZM1120.04 68.25H1142.96V66.167H1120.04V68.25Z" fill="#F8F8FA"/>
<path xmlns="http://www.w3.org/2000/svg" d="M1128.9 72.417H1122.65C1122.36 72.417 1122.12 72.6503 1122.12 72.938C1122.12 73.2257 1122.36 73.459 1122.65 73.459H1128.9C1129.18 73.459 1129.42 73.2257 1129.42 72.938C1129.42 72.6503 1129.18 72.417 1128.9 72.417Z" fill="#F8F8FA"/>
<path xmlns="http://www.w3.org/2000/svg" d="M1128.9 74.5H1122.65C1122.46 74.5 1122.29 74.5993 1122.19 74.7605C1122.1 74.9217 1122.1 75.1203 1122.19 75.2815C1122.29 75.4427 1122.46 75.542 1122.65 75.542H1128.9C1129.08 75.542 1129.25 75.4427 1129.35 75.2815C1129.44 75.1203 1129.44 74.9217 1129.35 74.7605C1129.25 74.5993 1129.08 74.5 1128.9 74.5Z" fill="#F8F8FA"/>
<path xmlns="http://www.w3.org/2000/svg" fill-rule="evenodd" clip-rule="evenodd" d="M1138.27 71.375H1139.31C1139.73 71.375 1140.13 71.5402 1140.42 71.8341C1140.71 72.1281 1140.88 72.5267 1140.88 72.942V73.98C1140.87 74.8426 1140.18 75.5414 1139.31 75.542H1138.27C1137.41 75.5414 1136.71 74.8426 1136.71 73.98V72.938C1136.71 72.0754 1137.41 71.3761 1138.27 71.375ZM1139.31 74.496C1139.6 74.496 1139.83 74.2627 1139.83 73.975V72.942C1139.83 72.8038 1139.78 72.6713 1139.68 72.5736C1139.58 72.4759 1139.45 72.421 1139.31 72.421H1138.27C1137.98 72.421 1137.75 72.6543 1137.75 72.942V73.975C1137.75 74.2627 1137.98 74.496 1138.27 74.496H1139.31Z" fill="#F8F8FA"/>
</svg>