<svg width="1440" height="327" viewBox="0 0 1440 327" fill="none" xmlns="http://www.w3.org/2000/svg">
<rect width="1440" height="327" fill="#F2F2F2"/>
<rect width="1440" height="327" fill="white"/>
<path d="M752 280C763.046 280 772 271.046 772 260C772 248.954 763.046 240 752 240C740.954 240 732 248.954 732 260C732 271.046 740.954 280 752 280Z" fill="#5A31FC"/>
<path d="M757.569 260.568L748.517 269.619C747.941 270.195 747.008 270.195 746.432 269.619C745.856 269.043 745.856 268.11 746.432 267.534L754.441 259.525L746.432 251.516C745.863 250.939 745.867 250.011 746.44 249.439C747.013 248.866 747.94 248.863 748.517 249.432L757.569 258.484C758.144 259.06 758.144 259.992 757.569 260.568V260.568Z" fill="white"/>
<path d="M939.5 272C949.717 272 958 263.717 958 253.5C958 243.283 949.717 235 939.5 235C929.283 235 921 243.283 921 253.5C921 263.717 929.283 272 939.5 272Z" fill="white"/>
</svg>