<svg width="1440" height="327" viewBox="0 0 1440 327" fill="none" xmlns="http://www.w3.org/2000/svg">
<path d="M886.5 272C896.717 272 905 263.717 905 253.5C905 243.283 896.717 235 886.5 235C876.283 235 868 243.283 868 253.5C868 263.717 876.283 272 886.5 272Z" fill="white"></path>
<path xmlns="http://www.w3.org/2000/svg" d="M895 248.538C894.398 248.8 893.762 248.975 893.11 249.056C893.797 248.649 894.31 248.003 894.553 247.243C893.91 247.624 893.207 247.893 892.473 248.037C891.553 247.055 890.126 246.735 888.874 247.23C887.622 247.725 886.8 248.934 886.8 250.28C886.797 250.531 886.823 250.782 886.876 251.028C884.237 250.899 881.777 249.652 880.114 247.599C879.238 249.097 879.679 251.018 881.122 251.983C880.603 251.97 880.095 251.833 879.64 251.583V251.619C879.644 253.18 880.74 254.524 882.268 254.842C881.987 254.916 881.698 254.952 881.408 254.95C881.2 254.954 880.991 254.935 880.787 254.894C881.221 256.228 882.449 257.144 883.852 257.179C882.691 258.087 881.259 258.58 879.785 258.579C879.522 258.578 879.26 258.561 879 258.527C880.5 259.493 882.248 260.005 884.032 259.999C886.513 260.016 888.897 259.038 890.652 257.284C892.406 255.53 893.385 253.146 893.368 250.665C893.368 250.52 893.368 250.38 893.356 250.241C894.003 249.778 894.56 249.201 895 248.538Z" fill="#3C0AFE"/>
</svg>